<svg width="249" height="74" viewBox="0 0 249 74" fill="none" xmlns="http://www.w3.org/2000/svg">
<g clip-path="url(#clip0_380_428)">
<path d="M20.7607 43.4523C22.8463 43.4523 24.5371 41.7599 24.5371 39.6722C24.5371 37.5845 22.8463 35.892 20.7607 35.892C18.6751 35.892 16.9844 37.5845 16.9844 39.6722C16.9844 41.7599 18.6751 43.4523 20.7607 43.4523Z" fill="#4176FF"/>
<path d="M28.0107 15.7071C30.0963 15.7071 31.7871 14.0147 31.7871 11.927C31.7871 9.83925 30.0963 8.14682 28.0107 8.14682C25.9251 8.14682 24.2344 9.83925 24.2344 11.927C24.2344 14.0147 25.9251 15.7071 28.0107 15.7071Z" fill="#4176FF"/>
<path d="M27.6709 73.3942C29.7565 73.3942 31.4472 71.7018 31.4472 69.614C31.4472 67.5263 29.7565 65.8339 27.6709 65.8339C25.5853 65.8339 23.8945 67.5263 23.8945 69.614C23.8945 71.7018 25.5853 73.3942 27.6709 73.3942Z" fill="#4176FF"/>
<path d="M34.7974 71.6439H27.6692C26.5492 71.6439 25.6402 70.7353 25.6402 69.6129C25.6402 68.4904 26.5479 67.5818 27.6692 67.5818H34.7974C35.6063 67.5818 36.3378 67.1008 36.6595 66.3578C36.9358 65.7191 36.8744 65.0189 36.4927 64.4364C36.1109 63.8551 35.4928 63.521 34.7974 63.521H23.7834C21.8732 63.521 20.2673 62.2142 19.8775 60.3422C19.4878 58.4701 20.4395 56.6302 22.1909 55.8672L36.6448 49.5709C36.6569 49.5656 36.6675 49.5616 36.6795 49.5562C40.8897 47.8138 44.4925 44.9009 47.0969 41.1327C49.7599 37.2804 51.2056 32.7613 51.2777 28.0659C51.3751 21.6935 48.991 15.6872 44.562 11.1547C40.1369 6.62496 34.198 4.10619 27.84 4.06076C21.4981 4.01533 15.5299 6.45259 11.0327 10.9236C6.53419 15.3945 4.058 21.3514 4.058 27.6958C4.058 36.3812 8.80213 44.349 16.4376 48.4913C17.8392 49.2516 19.4571 49.4293 20.9935 48.9924C22.5313 48.5554 23.8181 47.5506 24.6177 46.1649L38.3455 22.3643C38.8514 21.4877 38.5497 20.3613 37.674 19.8548L26.9977 13.6842C26.0273 13.123 25.6949 11.8816 26.2556 10.9102C26.8162 9.93878 28.0563 9.60606 29.0267 10.1673L39.7044 16.3379C42.5183 17.9641 43.486 21.5786 41.8615 24.3953L28.1337 48.196C26.8042 50.501 24.6631 52.1712 22.1054 52.8995C19.5438 53.6277 16.8447 53.3311 14.5074 52.063C5.5584 47.2099 0 37.8737 0 27.6971C0 23.9423 0.738183 20.2985 2.19453 16.8697C3.60014 13.5586 5.61179 10.5895 8.17341 8.04268C10.7337 5.49719 13.7144 3.5049 17.0303 2.12191C20.4062 0.713539 23.9836 0 27.6665 0C27.7332 0 27.8013 0 27.8681 0C31.6311 0.0267243 35.2726 0.79104 38.6885 2.27023C41.9883 3.69998 44.9411 5.7337 47.4626 8.31527C49.9869 10.8982 51.9531 13.9007 53.308 17.2399C54.711 20.6953 55.3917 24.3592 55.3343 28.1287C55.2503 33.6312 53.555 38.928 50.4327 43.4444C47.3865 47.8512 43.1724 51.2599 38.2467 53.303L24.1104 59.4616H34.7974C36.8531 59.4616 38.7539 60.4878 39.8832 62.2089C41.0125 63.9286 41.1981 66.0839 40.3825 67.972C39.4187 70.2035 37.2255 71.6452 34.7974 71.6452V71.6439Z" fill="#4176FF"/>
<path d="M20.76 41.7032C20.4156 41.7032 20.0672 41.615 19.7482 41.4306L15.6368 39.0549C12.8229 37.4287 11.8551 33.8142 13.4796 30.9975L21.1484 17.7008C21.7091 16.7294 22.9492 16.3966 23.9196 16.9578C24.8901 17.5191 25.2225 18.7604 24.6618 19.7318L16.993 33.0285C16.4871 33.9051 16.7888 35.0315 17.6644 35.5379L21.7758 37.9137C22.7463 38.4749 23.0787 39.7163 22.518 40.6877C22.1429 41.3384 21.4608 41.7032 20.76 41.7032Z" fill="#4176FF"/>
</g>
<path d="M72.2509 17.9923H75.5827V28.2186L75.0702 29.1669V31.858L75.5827 32.9345V37.7273H72.2509V17.9923ZM74.25 30.474C74.5746 28.9362 75.1129 27.6035 75.8647 26.4758C76.6165 25.331 77.5392 24.4425 78.6327 23.8103C79.7433 23.1781 80.9735 22.862 82.3234 22.862C83.7416 22.862 84.9974 23.1866 86.091 23.8359C87.1845 24.4681 88.0388 25.3566 88.6539 26.5014C89.2691 27.6291 89.5766 28.9533 89.5766 30.474C89.5766 31.9777 89.2691 33.3019 88.6539 34.4467C88.0388 35.5914 87.1845 36.4885 86.091 37.1378C84.9974 37.77 83.7416 38.0861 82.3234 38.0861C80.9735 38.0861 79.7433 37.77 78.6327 37.1378C77.5392 36.5056 76.6165 35.6171 75.8647 34.4723C75.1129 33.3275 74.5746 31.9947 74.25 30.474ZM86.1935 30.474C86.1935 29.5001 85.9884 28.6458 85.5784 27.9111C85.1854 27.1593 84.6386 26.5783 83.9381 26.1682C83.2375 25.7411 82.4344 25.5275 81.5289 25.5275C80.6233 25.5275 79.7689 25.7411 78.9659 26.1682C78.1799 26.5783 77.4879 27.1593 76.8899 27.9111C76.2918 28.6458 75.8049 29.5001 75.429 30.474C75.8049 31.448 76.2918 32.3108 76.8899 33.0626C77.4879 33.7974 78.1799 34.3783 78.9659 34.8055C79.7689 35.2155 80.6233 35.4206 81.5289 35.4206C82.4344 35.4206 83.2375 35.2155 83.9381 34.8055C84.6386 34.3783 85.1854 33.7974 85.5784 33.0626C85.9884 32.3108 86.1935 31.448 86.1935 30.474ZM100.371 38.0861C98.6114 38.0861 97.0651 37.77 95.7324 37.1378C94.4167 36.4885 93.383 35.5914 92.6312 34.4467C91.8964 33.3019 91.5291 31.9777 91.5291 30.474C91.5291 28.9533 91.8964 27.6291 92.6312 26.5014C93.383 25.3566 94.4167 24.4681 95.7324 23.8359C97.0651 23.1866 98.6114 22.862 100.371 22.862C102.131 22.862 103.669 23.1866 104.985 23.8359C106.317 24.4681 107.351 25.3566 108.086 26.5014C108.838 27.6291 109.214 28.9533 109.214 30.474C109.214 31.9777 108.838 33.3019 108.086 34.4467C107.351 35.5914 106.317 36.4885 104.985 37.1378C103.669 37.77 102.131 38.0861 100.371 38.0861ZM100.371 35.4718C101.499 35.4718 102.464 35.2668 103.268 34.8567C104.088 34.4467 104.72 33.8743 105.164 33.1395C105.608 32.3877 105.83 31.4992 105.83 30.474C105.83 29.4488 105.608 28.5689 105.164 27.8342C104.72 27.0824 104.088 26.5014 103.268 26.0913C102.464 25.6813 101.499 25.4762 100.371 25.4762C99.2607 25.4762 98.2953 25.6813 97.4752 26.0913C96.655 26.5014 96.0228 27.0824 95.5786 27.8342C95.1343 28.5689 94.9122 29.4488 94.9122 30.474C94.9122 31.4992 95.1343 32.3877 95.5786 33.1395C96.0228 33.8743 96.655 34.4467 97.4752 34.8567C98.2953 35.2668 99.2607 35.4718 100.371 35.4718ZM126.941 33.3189C126.941 34.2929 126.668 35.1387 126.121 35.8563C125.574 36.5739 124.745 37.1292 123.635 37.5222C122.524 37.8981 121.132 38.0861 119.457 38.0861C117.731 38.0861 116.236 37.8725 114.972 37.4453C113.708 37.0011 112.725 36.386 112.024 35.6C111.341 34.7969 110.974 33.8743 110.922 32.832H114.306C114.408 33.3787 114.681 33.8657 115.126 34.2929C115.587 34.703 116.185 35.0191 116.92 35.2412C117.672 35.4633 118.526 35.5744 119.483 35.5744C120.867 35.5744 121.909 35.412 122.61 35.0874C123.31 34.7457 123.66 34.2331 123.66 33.5496C123.66 33.0883 123.421 32.738 122.943 32.4988C122.481 32.2596 121.601 32.0802 120.303 31.9606L117.458 31.7043C115.92 31.5676 114.707 31.2942 113.819 30.8841C112.93 30.457 112.298 29.9444 111.922 29.3463C111.546 28.7312 111.358 28.0819 111.358 27.3985C111.358 26.4074 111.666 25.5787 112.281 24.9124C112.896 24.246 113.75 23.7419 114.844 23.4002C115.937 23.0414 117.21 22.862 118.663 22.862C120.166 22.862 121.508 23.0756 122.686 23.5027C123.865 23.9128 124.805 24.4938 125.506 25.2456C126.206 25.9803 126.599 26.8346 126.685 27.8085H123.302C123.233 27.4155 123.028 27.0396 122.686 26.6808C122.362 26.3049 121.858 25.9974 121.174 25.7582C120.508 25.5019 119.611 25.3737 118.483 25.3737C117.287 25.3737 116.347 25.5275 115.664 25.835C114.998 26.1426 114.664 26.5954 114.664 27.1934C114.664 27.5693 114.869 27.894 115.279 28.1674C115.69 28.4237 116.45 28.6031 117.561 28.7056L121.226 29.0388C122.695 29.1755 123.84 29.4403 124.66 29.8333C125.497 30.2092 126.087 30.6962 126.428 31.2942C126.77 31.8922 126.941 32.5671 126.941 33.3189ZM144.662 33.3189C144.662 34.2929 144.388 35.1387 143.841 35.8563C143.295 36.5739 142.466 37.1292 141.355 37.5222C140.245 37.8981 138.852 38.0861 137.178 38.0861C135.452 38.0861 133.957 37.8725 132.692 37.4453C131.428 37.0011 130.446 36.386 129.745 35.6C129.062 34.7969 128.694 33.8743 128.643 32.832H132.026C132.129 33.3787 132.402 33.8657 132.846 34.2929C133.308 34.703 133.906 35.0191 134.64 35.2412C135.392 35.4633 136.246 35.5744 137.203 35.5744C138.587 35.5744 139.63 35.412 140.33 35.0874C141.031 34.7457 141.381 34.2331 141.381 33.5496C141.381 33.0883 141.142 32.738 140.663 32.4988C140.202 32.2596 139.322 32.0802 138.023 31.9606L135.179 31.7043C133.641 31.5676 132.428 31.2942 131.539 30.8841C130.651 30.457 130.018 29.9444 129.643 29.3463C129.267 28.7312 129.079 28.0819 129.079 27.3985C129.079 26.4074 129.386 25.5787 130.001 24.9124C130.616 24.246 131.471 23.7419 132.564 23.4002C133.658 23.0414 134.931 22.862 136.383 22.862C137.887 22.862 139.228 23.0756 140.407 23.5027C141.586 23.9128 142.526 24.4938 143.226 25.2456C143.927 25.9803 144.32 26.8346 144.405 27.8085H141.022C140.954 27.4155 140.749 27.0396 140.407 26.6808C140.082 26.3049 139.578 25.9974 138.895 25.7582C138.229 25.5019 137.331 25.3737 136.204 25.3737C135.008 25.3737 134.068 25.5275 133.385 25.835C132.718 26.1426 132.385 26.5954 132.385 27.1934C132.385 27.5693 132.59 27.894 133 28.1674C133.41 28.4237 134.17 28.6031 135.281 28.7056L138.946 29.0388C140.416 29.1755 141.56 29.4403 142.381 29.8333C143.218 30.2092 143.807 30.6962 144.149 31.2942C144.491 31.8922 144.662 32.5671 144.662 33.3189ZM160.896 37.7273L160.332 32.345L160.998 30.474L160.332 28.6287L160.896 23.2208H164.33L163.561 30.474L164.33 37.7273H160.896ZM161.921 30.474C161.596 31.9947 161.058 33.3275 160.306 34.4723C159.554 35.6171 158.623 36.5056 157.513 37.1378C156.419 37.77 155.197 38.0861 153.847 38.0861C152.429 38.0861 151.173 37.77 150.08 37.1378C148.986 36.4885 148.132 35.5914 147.517 34.4467C146.902 33.3019 146.594 31.9777 146.594 30.474C146.594 28.9533 146.902 27.6291 147.517 26.5014C148.132 25.3566 148.986 24.4681 150.08 23.8359C151.173 23.1866 152.429 22.862 153.847 22.862C155.197 22.862 156.419 23.1781 157.513 23.8103C158.623 24.4425 159.554 25.331 160.306 26.4758C161.075 27.6035 161.613 28.9362 161.921 30.474ZM149.977 30.474C149.977 31.448 150.174 32.3108 150.567 33.0626C150.977 33.7974 151.532 34.3783 152.233 34.8055C152.933 35.2155 153.736 35.4206 154.642 35.4206C155.565 35.4206 156.419 35.2155 157.205 34.8055C157.991 34.3783 158.683 33.7974 159.281 33.0626C159.896 32.3108 160.383 31.448 160.742 30.474C160.383 29.5001 159.896 28.6458 159.281 27.9111C158.683 27.1593 157.991 26.5783 157.205 26.1682C156.419 25.7411 155.565 25.5275 154.642 25.5275C153.736 25.5275 152.933 25.7411 152.233 26.1682C151.532 26.5783 150.977 27.1593 150.567 27.9111C150.174 28.6458 149.977 29.5001 149.977 30.474ZM173.627 23.2208H176.959L177.831 28.4493V37.7273H174.499V27.9623L173.627 23.2208ZM183.597 22.862C184.964 22.862 186.126 23.1354 187.083 23.6821C188.04 24.2289 188.766 25.0149 189.262 26.0401C189.774 27.0482 190.031 28.2699 190.031 29.7051V37.7273H186.699V30.2434C186.699 28.7227 186.34 27.5779 185.622 26.809C184.922 26.023 183.888 25.63 182.521 25.63C181.581 25.63 180.753 25.8436 180.035 26.2708C179.334 26.6808 178.788 27.2618 178.395 28.0136C178.019 28.7654 177.831 29.6453 177.831 30.6534L176.652 30.0127C176.806 28.5091 177.199 27.2276 177.831 26.1682C178.463 25.1089 179.275 24.2973 180.266 23.7334C181.257 23.1525 182.367 22.862 183.597 22.862ZM201.389 38.0861C199.629 38.0861 198.082 37.77 196.75 37.1378C195.434 36.4885 194.4 35.5914 193.649 34.4467C192.914 33.3019 192.546 31.9777 192.546 30.474C192.546 28.9533 192.914 27.6291 193.649 26.5014C194.4 25.3566 195.434 24.4681 196.75 23.8359C198.082 23.1866 199.629 22.862 201.389 22.862C203.149 22.862 204.686 23.1866 206.002 23.8359C207.335 24.4681 208.369 25.3566 209.103 26.5014C209.855 27.6291 210.231 28.9533 210.231 30.474C210.231 31.9777 209.855 33.3019 209.103 34.4467C208.369 35.5914 207.335 36.4885 206.002 37.1378C204.686 37.77 203.149 38.0861 201.389 38.0861ZM201.389 35.4718C202.516 35.4718 203.482 35.2668 204.285 34.8567C205.105 34.4467 205.737 33.8743 206.181 33.1395C206.626 32.3877 206.848 31.4992 206.848 30.474C206.848 29.4488 206.626 28.5689 206.181 27.8342C205.737 27.0824 205.105 26.5014 204.285 26.0913C203.482 25.6813 202.516 25.4762 201.389 25.4762C200.278 25.4762 199.313 25.6813 198.493 26.0913C197.672 26.5014 197.04 27.0824 196.596 27.8342C196.152 28.5689 195.93 29.4488 195.93 30.474C195.93 31.4992 196.152 32.3877 196.596 33.1395C197.04 33.8743 197.672 34.4467 198.493 34.8567C199.313 35.2668 200.278 35.4718 201.389 35.4718ZM220.262 36.2407H218.981L224.927 23.2208H228.49L221.416 37.7273H217.674L210.6 23.2208H214.265L220.262 36.2407ZM243.266 37.7273L242.703 32.345L243.369 30.474L242.703 28.6287L243.266 23.2208H246.701L245.932 30.474L246.701 37.7273H243.266ZM244.292 30.474C243.967 31.9947 243.429 33.3275 242.677 34.4723C241.925 35.6171 240.994 36.5056 239.883 37.1378C238.79 37.77 237.568 38.0861 236.218 38.0861C234.8 38.0861 233.544 37.77 232.451 37.1378C231.357 36.4885 230.503 35.5914 229.888 34.4467C229.273 33.3019 228.965 31.9777 228.965 30.474C228.965 28.9533 229.273 27.6291 229.888 26.5014C230.503 25.3566 231.357 24.4681 232.451 23.8359C233.544 23.1866 234.8 22.862 236.218 22.862C237.568 22.862 238.79 23.1781 239.883 23.8103C240.994 24.4425 241.925 25.331 242.677 26.4758C243.446 27.6035 243.984 28.9362 244.292 30.474ZM232.348 30.474C232.348 31.448 232.545 32.3108 232.938 33.0626C233.348 33.7974 233.903 34.3783 234.604 34.8055C235.304 35.2155 236.107 35.4206 237.013 35.4206C237.935 35.4206 238.79 35.2155 239.576 34.8055C240.362 34.3783 241.054 33.7974 241.652 33.0626C242.267 32.3108 242.754 31.448 243.113 30.474C242.754 29.5001 242.267 28.6458 241.652 27.9111C241.054 27.1593 240.362 26.5783 239.576 26.1682C238.79 25.7411 237.935 25.5275 237.013 25.5275C236.107 25.5275 235.304 25.7411 234.604 26.1682C233.903 26.5783 233.348 27.1593 232.938 27.9111C232.545 28.6458 232.348 29.5001 232.348 30.474ZM84.2177 54.1205C84.2177 54.9173 83.994 55.6093 83.5466 56.1965C83.0993 56.7836 82.4212 57.238 81.5125 57.5595C80.6039 57.8671 79.4645 58.0208 78.0945 58.0208C76.6825 58.0208 75.4593 57.8461 74.4247 57.4966C73.3902 57.1331 72.5864 56.6298 72.0132 55.9868C71.454 55.3297 71.1535 54.5748 71.1115 53.722H73.8795C73.9634 54.1694 74.1871 54.5678 74.5506 54.9173C74.928 55.2528 75.4173 55.5115 76.0185 55.6932C76.6336 55.8749 77.3326 55.9658 78.1154 55.9658C79.2478 55.9658 80.1006 55.833 80.6738 55.5674C81.2469 55.2878 81.5335 54.8684 81.5335 54.3092C81.5335 53.9317 81.3378 53.6451 80.9464 53.4494C80.5689 53.2537 79.8489 53.1069 78.7865 53.0091L76.4588 52.7994C75.2006 52.6875 74.2081 52.4638 73.4811 52.1283C72.7542 51.7788 72.2369 51.3594 71.9293 50.8701C71.6218 50.3669 71.468 49.8356 71.468 49.2764C71.468 48.4656 71.7196 47.7876 72.2229 47.2424C72.7262 46.6971 73.4252 46.2847 74.3199 46.0051C75.2146 45.7116 76.2561 45.5648 77.4444 45.5648C78.6746 45.5648 79.7721 45.7395 80.7367 46.089C81.7013 46.4245 82.4702 46.8998 83.0433 47.515C83.6165 48.1161 83.9381 48.8151 84.008 49.6119H81.2399C81.184 49.2904 81.0163 48.9828 80.7367 48.6893C80.471 48.3817 80.0586 48.1301 79.4994 47.9344C78.9542 47.7247 78.2203 47.6198 77.2976 47.6198C76.319 47.6198 75.5501 47.7456 74.9909 47.9973C74.4457 48.2489 74.1731 48.6194 74.1731 49.1087C74.1731 49.4162 74.3409 49.6818 74.6764 49.9055C75.0119 50.1152 75.634 50.262 76.5427 50.3459L79.5414 50.6185C80.7437 50.7303 81.6803 50.947 82.3513 51.2686C83.0364 51.5761 83.5187 51.9745 83.7983 52.4638C84.0779 52.9531 84.2177 53.5053 84.2177 54.1205ZM100.75 58.0208C99.3105 58.0208 98.0453 57.7622 96.9549 57.245C95.8784 56.7137 95.0326 55.9798 94.4175 55.0431C93.8164 54.1065 93.5158 53.023 93.5158 51.7928C93.5158 50.5486 93.8164 49.4652 94.4175 48.5425C95.0326 47.6058 95.8784 46.8789 96.9549 46.3616C98.0453 45.8304 99.3105 45.5648 100.75 45.5648C102.19 45.5648 103.449 45.8304 104.525 46.3616C105.615 46.8789 106.461 47.6058 107.062 48.5425C107.677 49.4652 107.985 50.5486 107.985 51.7928C107.985 53.023 107.677 54.1065 107.062 55.0431C106.461 55.9798 105.615 56.7137 104.525 57.245C103.449 57.7622 102.19 58.0208 100.75 58.0208ZM100.75 55.8819C101.673 55.8819 102.463 55.7142 103.12 55.3786C103.791 55.0431 104.308 54.5748 104.672 53.9737C105.035 53.3586 105.217 52.6316 105.217 51.7928C105.217 50.954 105.035 50.234 104.672 49.6329C104.308 49.0178 103.791 48.5425 103.12 48.207C102.463 47.8714 101.673 47.7037 100.75 47.7037C99.8417 47.7037 99.0518 47.8714 98.3808 48.207C97.7098 48.5425 97.1925 49.0178 96.829 49.6329C96.4656 50.234 96.2838 50.954 96.2838 51.7928C96.2838 52.6316 96.4656 53.3586 96.829 53.9737C97.1925 54.5748 97.7098 55.0431 98.3808 55.3786C99.0518 55.7142 99.8417 55.8819 100.75 55.8819ZM117.96 41.5805H120.686V57.7273H117.96V41.5805ZM136.299 58.0208C135.209 58.0208 134.279 57.7972 133.51 57.3498C132.756 56.9025 132.175 56.2594 131.77 55.4206C131.365 54.5818 131.162 53.5822 131.162 52.4219V45.8583H133.888V52.0025C133.888 53.2327 134.168 54.1694 134.727 54.8125C135.3 55.4416 136.118 55.7561 137.18 55.7561C137.949 55.7561 138.606 55.5883 139.151 55.2528C139.711 54.9173 140.144 54.442 140.451 53.8269C140.759 53.1978 140.913 52.4708 140.913 51.646L141.856 52.1703C141.745 53.3865 141.437 54.435 140.934 55.3157C140.431 56.1825 139.78 56.8535 138.984 57.3288C138.187 57.7902 137.292 58.0208 136.299 58.0208ZM141.605 57.7273L140.913 53.4494V45.8583H143.639V53.8688L144.331 57.7273H141.605ZM153.105 47.9553V46.7181L155.642 46.068L156.775 42.7548H158.369V45.8583H163.884V47.9553H158.369V53.0929C158.369 54.0855 158.578 54.7845 158.998 55.1899C159.431 55.5814 160.13 55.7771 161.095 55.7771C161.71 55.7771 162.255 55.7142 162.73 55.5883C163.206 55.4485 163.66 55.2528 164.093 55.0012V57.245C163.73 57.4267 163.213 57.6014 162.542 57.7692C161.885 57.937 161.206 58.0208 160.507 58.0208C159.347 58.0208 158.411 57.8321 157.698 57.4547C156.985 57.0632 156.46 56.532 156.125 55.861C155.803 55.1759 155.642 54.3931 155.642 53.5123V47.9553H153.105ZM173.838 45.7745L175.201 46.0261L176.564 45.7745V57.7273H173.838V45.7745ZM175.201 44.2856C174.684 44.2856 174.257 44.1458 173.922 43.8662C173.586 43.5726 173.418 43.1952 173.418 42.7338C173.418 42.2725 173.586 41.902 173.922 41.6224C174.257 41.3289 174.684 41.1821 175.201 41.1821C175.732 41.1821 176.158 41.3289 176.48 41.6224C176.815 41.902 176.983 42.2725 176.983 42.7338C176.983 43.1952 176.815 43.5726 176.48 43.8662C176.158 44.1458 175.732 44.2856 175.201 44.2856ZM193.771 58.0208C192.331 58.0208 191.066 57.7622 189.976 57.245C188.899 56.7137 188.053 55.9798 187.438 55.0431C186.837 54.1065 186.537 53.023 186.537 51.7928C186.537 50.5486 186.837 49.4652 187.438 48.5425C188.053 47.6058 188.899 46.8789 189.976 46.3616C191.066 45.8304 192.331 45.5648 193.771 45.5648C195.211 45.5648 196.469 45.8304 197.546 46.3616C198.636 46.8789 199.482 47.6058 200.083 48.5425C200.698 49.4652 201.006 50.5486 201.006 51.7928C201.006 53.023 200.698 54.1065 200.083 55.0431C199.482 55.9798 198.636 56.7137 197.546 57.245C196.469 57.7622 195.211 58.0208 193.771 58.0208ZM193.771 55.8819C194.694 55.8819 195.484 55.7142 196.141 55.3786C196.812 55.0431 197.329 54.5748 197.693 53.9737C198.056 53.3586 198.238 52.6316 198.238 51.7928C198.238 50.954 198.056 50.234 197.693 49.6329C197.329 49.0178 196.812 48.5425 196.141 48.207C195.484 47.8714 194.694 47.7037 193.771 47.7037C192.862 47.7037 192.073 47.8714 191.402 48.207C190.731 48.5425 190.213 49.0178 189.85 49.6329C189.486 50.234 189.305 50.954 189.305 51.7928C189.305 52.6316 189.486 53.3586 189.85 53.9737C190.213 54.5748 190.731 55.0431 191.402 55.3786C192.073 55.7142 192.862 55.8819 193.771 55.8819ZM210.414 45.8583H213.14L213.853 50.1362V57.7273H211.127V49.7378L210.414 45.8583ZM218.572 45.5648C219.69 45.5648 220.641 45.7884 221.424 46.2358C222.206 46.6832 222.801 47.3262 223.206 48.165C223.625 48.9898 223.835 49.9894 223.835 51.1637V57.7273H221.109V51.6041C221.109 50.3599 220.815 49.4232 220.228 48.7941C219.655 48.151 218.809 47.8295 217.691 47.8295C216.922 47.8295 216.244 48.0043 215.657 48.3538C215.084 48.6893 214.636 49.1646 214.315 49.7797C214.007 50.3948 213.853 51.1148 213.853 51.9396L212.889 51.4153C213.015 50.1851 213.336 49.1366 213.853 48.2699C214.371 47.4031 215.035 46.7391 215.846 46.2777C216.656 45.8024 217.565 45.5648 218.572 45.5648ZM246.612 54.1205C246.612 54.9173 246.388 55.6093 245.941 56.1965C245.493 56.7836 244.815 57.238 243.907 57.5595C242.998 57.8671 241.859 58.0208 240.489 58.0208C239.077 58.0208 237.853 57.8461 236.819 57.4966C235.784 57.1331 234.98 56.6298 234.407 55.9868C233.848 55.3297 233.547 54.5748 233.506 53.722H236.274C236.357 54.1694 236.581 54.5678 236.945 54.9173C237.322 55.2528 237.811 55.5115 238.412 55.6932C239.028 55.8749 239.727 55.9658 240.509 55.9658C241.642 55.9658 242.495 55.833 243.068 55.5674C243.641 55.2878 243.928 54.8684 243.928 54.3092C243.928 53.9317 243.732 53.6451 243.34 53.4494C242.963 53.2537 242.243 53.1069 241.181 53.0091L238.853 52.7994C237.595 52.6875 236.602 52.4638 235.875 52.1283C235.148 51.7788 234.631 51.3594 234.323 50.8701C234.016 50.3669 233.862 49.8356 233.862 49.2764C233.862 48.4656 234.114 47.7876 234.617 47.2424C235.12 46.6971 235.819 46.2847 236.714 46.0051C237.609 45.7116 238.65 45.5648 239.838 45.5648C241.069 45.5648 242.166 45.7395 243.131 46.089C244.095 46.4245 244.864 46.8998 245.437 47.515C246.011 48.1161 246.332 48.8151 246.402 49.6119H243.634C243.578 49.2904 243.41 48.9828 243.131 48.6893C242.865 48.3817 242.453 48.1301 241.893 47.9344C241.348 47.7247 240.614 47.6198 239.692 47.6198C238.713 47.6198 237.944 47.7456 237.385 47.9973C236.84 48.2489 236.567 48.6194 236.567 49.1087C236.567 49.4162 236.735 49.6818 237.07 49.9055C237.406 50.1152 238.028 50.262 238.937 50.3459L241.935 50.6185C243.138 50.7303 244.074 50.947 244.745 51.2686C245.43 51.5761 245.913 51.9745 246.192 52.4638C246.472 52.9531 246.612 53.5053 246.612 54.1205Z" fill="#646465"/>
<defs>
<clipPath id="clip0_380_428">
<rect width="55.337" height="73.3944" fill="white"/>
</clipPath>
</defs>
</svg>
