<svg width="56" height="74" viewBox="0 0 56 74" fill="none" xmlns="http://www.w3.org/2000/svg">
<g clip-path="url(#clip0_380_429)">
<path d="M20.7607 43.4523C22.8463 43.4523 24.5371 41.7599 24.5371 39.6722C24.5371 37.5845 22.8463 35.892 20.7607 35.892C18.6751 35.892 16.9844 37.5845 16.9844 39.6722C16.9844 41.7599 18.6751 43.4523 20.7607 43.4523Z" fill="#4176FF"/>
<path d="M28.0107 15.7071C30.0963 15.7071 31.7871 14.0147 31.7871 11.927C31.7871 9.83925 30.0963 8.14682 28.0107 8.14682C25.9251 8.14682 24.2344 9.83925 24.2344 11.927C24.2344 14.0147 25.9251 15.7071 28.0107 15.7071Z" fill="#4176FF"/>
<path d="M27.6709 73.3942C29.7565 73.3942 31.4472 71.7018 31.4472 69.614C31.4472 67.5263 29.7565 65.8339 27.6709 65.8339C25.5853 65.8339 23.8945 67.5263 23.8945 69.614C23.8945 71.7018 25.5853 73.3942 27.6709 73.3942Z" fill="#4176FF"/>
<path d="M34.7974 71.6439H27.6692C26.5492 71.6439 25.6402 70.7353 25.6402 69.6129C25.6402 68.4904 26.5479 67.5818 27.6692 67.5818H34.7974C35.6063 67.5818 36.3378 67.1008 36.6595 66.3578C36.9358 65.7191 36.8744 65.0189 36.4927 64.4364C36.1109 63.8551 35.4928 63.521 34.7974 63.521H23.7834C21.8732 63.521 20.2673 62.2142 19.8775 60.3422C19.4878 58.4701 20.4395 56.6302 22.1909 55.8672L36.6448 49.5709C36.6569 49.5656 36.6675 49.5616 36.6795 49.5562C40.8897 47.8138 44.4925 44.9009 47.0969 41.1327C49.7599 37.2804 51.2056 32.7613 51.2777 28.0659C51.3751 21.6935 48.991 15.6872 44.562 11.1547C40.1369 6.62496 34.198 4.10619 27.84 4.06076C21.4981 4.01533 15.5299 6.45259 11.0327 10.9236C6.53419 15.3945 4.058 21.3514 4.058 27.6958C4.058 36.3812 8.80213 44.349 16.4376 48.4913C17.8392 49.2516 19.4571 49.4293 20.9935 48.9924C22.5313 48.5554 23.8181 47.5506 24.6177 46.1649L38.3455 22.3643C38.8514 21.4877 38.5497 20.3613 37.674 19.8548L26.9977 13.6842C26.0273 13.123 25.6949 11.8816 26.2556 10.9102C26.8162 9.93878 28.0563 9.60606 29.0267 10.1673L39.7044 16.3379C42.5183 17.9641 43.486 21.5786 41.8615 24.3953L28.1337 48.196C26.8042 50.501 24.6631 52.1712 22.1054 52.8995C19.5438 53.6277 16.8447 53.3311 14.5074 52.063C5.5584 47.2099 0 37.8737 0 27.6971C0 23.9423 0.738183 20.2985 2.19453 16.8697C3.60014 13.5586 5.61179 10.5895 8.17341 8.04268C10.7337 5.49719 13.7144 3.5049 17.0303 2.12191C20.4062 0.713539 23.9836 0 27.6665 0C27.7332 0 27.8013 0 27.8681 0C31.6311 0.0267243 35.2726 0.79104 38.6885 2.27023C41.9883 3.69998 44.9411 5.7337 47.4626 8.31527C49.9869 10.8982 51.9531 13.9007 53.308 17.2399C54.711 20.6953 55.3917 24.3592 55.3343 28.1287C55.2503 33.6312 53.555 38.928 50.4327 43.4444C47.3865 47.8512 43.1724 51.2599 38.2467 53.303L24.1104 59.4616H34.7974C36.8531 59.4616 38.7539 60.4878 39.8832 62.2089C41.0125 63.9286 41.1981 66.0839 40.3825 67.972C39.4187 70.2035 37.2255 71.6452 34.7974 71.6452V71.6439Z" fill="#4176FF"/>
<path d="M20.76 41.7032C20.4156 41.7032 20.0672 41.615 19.7482 41.4306L15.6368 39.0549C12.8229 37.4287 11.8551 33.8142 13.4796 30.9975L21.1484 17.7008C21.7091 16.7294 22.9492 16.3966 23.9196 16.9578C24.8901 17.5191 25.2225 18.7604 24.6618 19.7318L16.993 33.0285C16.4871 33.9051 16.7888 35.0315 17.6644 35.5379L21.7758 37.9137C22.7463 38.4749 23.0787 39.7163 22.518 40.6877C22.1429 41.3384 21.4608 41.7032 20.76 41.7032Z" fill="#4176FF"/>
</g>
<defs>
<clipPath id="clip0_380_429">
<rect width="55.337" height="73.3944" fill="white"/>
</clipPath>
</defs>
</svg>
